<?xml version="1.0" encoding="UTF-8" standalone="no"?>
<!-- Created with Inkscape (http://www.inkscape.org/) -->

<svg
   width="160.31644mm"
   height="32.977665mm"
   viewBox="0 0 160.31644 32.977665"
   version="1.1"
   id="svg1"
   inkscape:version="1.3.2 (091e20e, 2023-11-25, custom)"
   sodipodi:docname="openuem.svg"
   xmlns:inkscape="http://www.inkscape.org/namespaces/inkscape"
   xmlns:sodipodi="http://sodipodi.sourceforge.net/DTD/sodipodi-0.dtd"
   xmlns="http://www.w3.org/2000/svg"
   xmlns:svg="http://www.w3.org/2000/svg">
  <sodipodi:namedview
     id="namedview1"
     pagecolor="#ffffff"
     bordercolor="#000000"
     borderopacity="0.25"
     inkscape:showpageshadow="2"
     inkscape:pageopacity="0.0"
     inkscape:pagecheckerboard="0"
     inkscape:deskcolor="#d1d1d1"
     inkscape:document-units="mm"
     inkscape:zoom="0.94316065"
     inkscape:cx="303.23572"
     inkscape:cy="84.291048"
     inkscape:window-width="1920"
     inkscape:window-height="1009"
     inkscape:window-x="-8"
     inkscape:window-y="-8"
     inkscape:window-maximized="1"
     inkscape:current-layer="layer1" />
  <defs
     id="defs1">
    <rect
       x="64.676147"
       y="446.37146"
       width="695.53369"
       height="209.93242"
       id="rect2" />
    <rect
       x="173.88342"
       y="454.85358"
       width="434.70856"
       height="196.14899"
       id="rect1" />
  </defs>
  <g
     inkscape:label="Capa 1"
     inkscape:groupmode="layer"
     id="layer1"
     transform="translate(-24.710967,-126.37088)">
    <text
       xml:space="preserve"
       transform="scale(0.26458333)"
       id="text1"
       style="font-size:160px;font-family:Direction;-inkscape-font-specification:'Direction, Normal';white-space:pre;shape-inside:url(#rect1);fill:#8fcc8f" />
    <g
       id="text2"
       style="font-size:160px;font-family:Direction;-inkscape-font-specification:'Direction, Normal';white-space:pre;fill:#8fcc8f"
       transform="matrix(0.26458333,0,0,0.26458333,5.8208336,0)"
       aria-label="OpenUEM">
      <path
         d="m 141.15578,566.42223 v -52.8 q 0,-14.72 -10.08,-25.28 -10.08,-10.72 -24.8,-10.72 -14.719999,0 -24.799999,10.72 -10.08,10.56 -10.08,25.28 v 52.8 q 0,14.72 10.08,25.28 10.08,10.56 24.799999,10.56 14.72,0 24.8,-10.4 10.08,-10.56 10.08,-25.44 z m -22.88,0 -12,10.88 -11.999999,-10.88 h 7.999999 v -52.8 h -7.999999 l 11.999999,-11.36 12,11.36 h -8 v 52.8 z m 104.80007,-49.6 q 0,-13.28 -9.12,-24.64 -9.6,-12.16 -22.56,-12.16 h -36.48 v 32.8 h 33.6 v -8 l 10.88,12 -10.88,12 v -8 h -33.6 v 79.2 h 30.72 v -46.4 q 16.64,0 27.04,-10.08 10.4,-10.4 10.4,-26.72 z m 82.88004,83.36 v -29.76 h -33.6 v 8.48 l -10.88,-12.48 10.88,-12 v 8 h 17.6 v -44.8 h -17.6 v 8.48 l -10.88,-12.48 10.88,-11.68 v 7.68 h 33.6 v -29.44 h -69.76 v 120 z m 83.20007,-0.16 v -85.92 q 0,-15.68 -10.56,-25.12 -10.4,-8.96 -26.08,-8.96 h -33.12 v 120 h 30.88 v -84.8 h -8 l 12,-11.36 12,11.36 h -8 v 84.8 z"
         id="path1" />
      <path
         style="fill:#007500"
         d="m 472.03604,565.46223 v -85.44 h -30.88 v 85.44 h 8 l -12,11.36 -12,-11.36 h 8 v -85.44 h -30.88 v 85.44 q 0,15.2 9.92,26.08 9.76,10.72 24.96,10.72 15.2,0 24.96,-10.72 9.92,-10.88 9.92,-26.08 z m 83.52007,34.72 v -29.76 h -33.6 v 8.48 l -10.88,-12.48 10.88,-12 v 8 h 17.6 v -44.8 h -17.6 v 8.48 l -10.88,-12.48 10.88,-11.68 v 7.68 h 33.6 v -29.44 h -69.76 v 120 z m 121.76007,-0.16 v -90.4 q 0,-14.88 -8.16,-23.36 -8.16,-8.64 -22.72,-8.64 -12,0 -23.52,10.56 -7.2,-5.76 -12,-7.2 -3.2,-0.96 -11.52,-0.96 h -30.72 v 120 h 30.88 v -84.8 h -8 l 12,-11.36 12,11.36 h -8 v 84.8 h 30.88 v -84.8 h -8 l 12,-11.36 12,11.36 h -8 v 84.8 z"
         id="path2" />
    </g>
  </g>
</svg>
